<svg width="32" height="32" viewBox="0 0 32 32" fill="none" xmlns="http://www.w3.org/2000/svg">
<path d="M14.6676 7.99948H18.6676L23.0543 3.59948C23.1782 3.4745 23.3257 3.37531 23.4882 3.30762C23.6507 3.23993 23.8249 3.20508 24.001 3.20508C24.177 3.20508 24.3512 3.23993 24.5137 3.30762C24.6762 3.37531 24.8237 3.4745 24.9476 3.59948L28.3876 7.05281C28.636 7.30263 28.7753 7.64056 28.7753 7.99281C28.7753 8.34506 28.636 8.68299 28.3876 8.93281L25.3343 11.9995H14.6676V14.6661C14.6676 15.0198 14.5271 15.3589 14.2771 15.609C14.027 15.859 13.6879 15.9995 13.3343 15.9995C12.9807 15.9995 12.6415 15.859 12.3915 15.609C12.1414 15.3589 12.001 15.0198 12.001 14.6661V10.6661C12.001 9.9589 12.2819 9.28062 12.782 8.78052C13.2821 8.28043 13.9604 7.99948 14.6676 7.99948ZM6.66762 14.6661V19.9995L3.61429 23.0528C3.36595 23.3026 3.22656 23.6406 3.22656 23.9928C3.22656 24.3451 3.36595 24.683 3.61429 24.9328L7.05429 28.3861C7.17824 28.5111 7.3257 28.6103 7.48818 28.678C7.65066 28.7457 7.82494 28.7805 8.00095 28.7805C8.17697 28.7805 8.35124 28.7457 8.51372 28.678C8.6762 28.6103 8.82367 28.5111 8.94762 28.3861L14.6676 22.6661H20.001C20.3546 22.6661 20.6937 22.5257 20.9438 22.2756C21.1938 22.0256 21.3343 21.6864 21.3343 21.3328V19.9995H22.6676C23.0212 19.9995 23.3604 19.859 23.6104 19.609C23.8605 19.3589 24.001 19.0198 24.001 18.6661V17.3328H25.3343C25.6879 17.3328 26.0271 17.1923 26.2771 16.9423C26.5271 16.6922 26.6676 16.3531 26.6676 15.9995V14.6661H17.3343V15.9995C17.3343 16.7067 17.0533 17.385 16.5532 17.8851C16.0531 18.3852 15.3749 18.6661 14.6676 18.6661H12.001C11.2937 18.6661 10.6154 18.3852 10.1153 17.8851C9.61524 17.385 9.33429 16.7067 9.33429 15.9995V11.9995L6.66762 14.6661Z" fill="white"/>
</svg>
