<svg width="32" height="32" viewBox="0 0 32 32" fill="none" xmlns="http://www.w3.org/2000/svg">
<g clip-path="url(#clip0_6251_3819)">
<path d="M30.18 25.58C30.4341 25.3821 30.6367 25.1258 30.7705 24.8328C30.9043 24.5398 30.9654 24.2188 30.9485 23.8971C30.9316 23.5755 30.8372 23.2627 30.6735 22.9853C30.5098 22.7079 30.2815 22.4742 30.008 22.304L30 10.66L28 12V22.3C27.7293 22.4698 27.5032 22.702 27.3407 22.9772C27.1782 23.2523 27.084 23.5624 27.066 23.8814C27.048 24.2005 27.1067 24.5192 27.2372 24.8109C27.3677 25.1026 27.5661 25.3588 27.816 25.558L27.06 26.562C26.3876 27.4174 26.0152 28.4701 26 29.558V32.002H27.63C28.0216 32.002 28.402 31.8713 28.7109 31.6308C29.0199 31.3903 29.2399 31.0536 29.336 30.674L29.998 28.002V32.002H31.998V29.582C31.9806 28.4889 31.6055 27.4316 30.93 26.572L30.18 25.58ZM16 0L0 8L16 18L32 8L16 0Z" fill="white"/>
<path d="M16 19.9998L6 13.3398V16.7598C6 18.5798 11.88 23.9998 16 23.9998C20.12 23.9998 26 18.5798 26 16.7598V13.3398L16 19.9998Z" fill="white"/>
</g>
<defs>
<clipPath id="clip0_6251_3819">
<rect width="32" height="32" fill="white"/>
</clipPath>
</defs>
</svg>
