<svg width="17" height="16" viewBox="0 0 17 16" fill="none" xmlns="http://www.w3.org/2000/svg">
<path fill-rule="evenodd" clip-rule="evenodd" d="M3.7473 6.80423C3.02562 6.80423 2.875 6.94176 2.875 7.60056V8.79496C2.875 9.45376 3.02562 9.5913 3.7473 9.5913H5.49189V14.3691C5.49189 15.0279 5.6425 15.1654 6.36418 15.1654H8.10877C8.83044 15.1654 8.98104 15.0279 8.98104 14.3691V9.5913H10.94C11.4873 9.5913 11.6284 9.49416 11.7787 9.01376L12.1526 7.8193C12.4101 6.99636 12.2514 6.80423 11.3138 6.80423H8.98104V4.81351C8.98104 4.37373 9.37157 4.01722 9.85337 4.01722H12.336C13.0577 4.01722 13.2083 3.87972 13.2083 3.22092V1.62832C13.2083 0.969524 13.0577 0.832031 12.336 0.832031H9.85337C7.44457 0.832031 5.49189 2.6146 5.49189 4.81351V6.80423H3.7473Z" fill="#F47E29"/>
<path fill-rule="evenodd" clip-rule="evenodd" d="M3.7473 6.80423C3.02562 6.80423 2.875 6.94176 2.875 7.60056V8.79496C2.875 9.45376 3.02562 9.5913 3.7473 9.5913H5.49189V14.3691C5.49189 15.0279 5.6425 15.1654 6.36418 15.1654H8.10877C8.83044 15.1654 8.98104 15.0279 8.98104 14.3691V9.5913H10.94C11.4873 9.5913 11.6284 9.49416 11.7787 9.01376L12.1526 7.8193C12.4101 6.99636 12.2514 6.80423 11.3138 6.80423H8.98104V4.81351C8.98104 4.37373 9.37157 4.01722 9.85337 4.01722H12.336C13.0577 4.01722 13.2083 3.87972 13.2083 3.22092V1.62832C13.2083 0.969524 13.0577 0.832031 12.336 0.832031H9.85337C7.44457 0.832031 5.49189 2.6146 5.49189 4.81351V6.80423H3.7473Z" fill="#EF6907"/>
<path fill-rule="evenodd" clip-rule="evenodd" d="M3.7473 6.80423C3.02562 6.80423 2.875 6.94176 2.875 7.60056V8.79496C2.875 9.45376 3.02562 9.5913 3.7473 9.5913H5.49189V14.3691C5.49189 15.0279 5.6425 15.1654 6.36418 15.1654H8.10877C8.83044 15.1654 8.98104 15.0279 8.98104 14.3691V9.5913H10.94C11.4873 9.5913 11.6284 9.49416 11.7787 9.01376L12.1526 7.8193C12.4101 6.99636 12.2514 6.80423 11.3138 6.80423H8.98104V4.81351C8.98104 4.37373 9.37157 4.01722 9.85337 4.01722H12.336C13.0577 4.01722 13.2083 3.87972 13.2083 3.22092V1.62832C13.2083 0.969524 13.0577 0.832031 12.336 0.832031H9.85337C7.44457 0.832031 5.49189 2.6146 5.49189 4.81351V6.80423H3.7473Z" fill="#FFB38A"/>
<path fill-rule="evenodd" clip-rule="evenodd" d="M3.7473 6.80423C3.02562 6.80423 2.875 6.94176 2.875 7.60056V8.79496C2.875 9.45376 3.02562 9.5913 3.7473 9.5913H5.49189V14.3691C5.49189 15.0279 5.6425 15.1654 6.36418 15.1654H8.10877C8.83044 15.1654 8.98104 15.0279 8.98104 14.3691V9.5913H10.94C11.4873 9.5913 11.6284 9.49416 11.7787 9.01376L12.1526 7.8193C12.4101 6.99636 12.2514 6.80423 11.3138 6.80423H8.98104V4.81351C8.98104 4.37373 9.37157 4.01722 9.85337 4.01722H12.336C13.0577 4.01722 13.2083 3.87972 13.2083 3.22092V1.62832C13.2083 0.969524 13.0577 0.832031 12.336 0.832031H9.85337C7.44457 0.832031 5.49189 2.6146 5.49189 4.81351V6.80423H3.7473Z" fill="#FCD0B9"/>
<path fill-rule="evenodd" clip-rule="evenodd" d="M3.7473 6.80423C3.02562 6.80423 2.875 6.94176 2.875 7.60056V8.79496C2.875 9.45376 3.02562 9.5913 3.7473 9.5913H5.49189V14.3691C5.49189 15.0279 5.6425 15.1654 6.36418 15.1654H8.10877C8.83044 15.1654 8.98104 15.0279 8.98104 14.3691V9.5913H10.94C11.4873 9.5913 11.6284 9.49416 11.7787 9.01376L12.1526 7.8193C12.4101 6.99636 12.2514 6.80423 11.3138 6.80423H8.98104V4.81351C8.98104 4.37373 9.37157 4.01722 9.85337 4.01722H12.336C13.0577 4.01722 13.2083 3.87972 13.2083 3.22092V1.62832C13.2083 0.969524 13.0577 0.832031 12.336 0.832031H9.85337C7.44457 0.832031 5.49189 2.6146 5.49189 4.81351V6.80423H3.7473Z" fill="#F9EEE8"/>
<path fill-rule="evenodd" clip-rule="evenodd" d="M3.7473 6.80423C3.02562 6.80423 2.875 6.94176 2.875 7.60056V8.79496C2.875 9.45376 3.02562 9.5913 3.7473 9.5913H5.49189V14.3691C5.49189 15.0279 5.6425 15.1654 6.36418 15.1654H8.10877C8.83044 15.1654 8.98104 15.0279 8.98104 14.3691V9.5913H10.94C11.4873 9.5913 11.6284 9.49416 11.7787 9.01376L12.1526 7.8193C12.4101 6.99636 12.2514 6.80423 11.3138 6.80423H8.98104V4.81351C8.98104 4.37373 9.37157 4.01722 9.85337 4.01722H12.336C13.0577 4.01722 13.2083 3.87972 13.2083 3.22092V1.62832C13.2083 0.969524 13.0577 0.832031 12.336 0.832031H9.85337C7.44457 0.832031 5.49189 2.6146 5.49189 4.81351V6.80423H3.7473Z" fill="white"/>
</svg>
