<svg width="20" height="20" viewBox="0 0 20 20" fill="none" xmlns="http://www.w3.org/2000/svg">
<path fill-rule="evenodd" clip-rule="evenodd" d="M4.63334 8.50822C3.73124 8.50822 3.54297 8.68013 3.54297 9.50363V10.9966C3.54297 11.8201 3.73124 11.9921 4.63334 11.9921H6.81408V17.9643C6.81408 18.7878 7.00234 18.9596 7.90444 18.9596H10.0852C10.9873 18.9596 11.1755 18.7878 11.1755 17.9643V11.9921H13.6242C14.3084 11.9921 14.4847 11.8706 14.6726 11.2701L15.1399 9.77705C15.4619 8.74838 15.2634 8.50822 14.0915 8.50822H11.1755V6.01982C11.1755 5.47009 11.6637 5.02445 12.2659 5.02445H15.3693C16.2714 5.02445 16.4596 4.85259 16.4596 4.02908V2.03834C16.4596 1.21484 16.2714 1.04297 15.3693 1.04297H12.2659C9.25494 1.04297 6.81408 3.27119 6.81408 6.01982V8.50822H4.63334Z" fill="#08879F"/>
</svg>
