<svg width="17" height="16" viewBox="0 0 17 16" fill="none" xmlns="http://www.w3.org/2000/svg">
<g clip-path="url(#clip0_4777_1168)">
<path d="M1.71094 8.0013C1.71094 5.01574 1.71094 3.52296 2.63843 2.59546C3.56593 1.66797 5.05871 1.66797 8.04427 1.66797C11.0298 1.66797 12.5226 1.66797 13.4501 2.59546C14.3776 3.52296 14.3776 5.01574 14.3776 8.0013C14.3776 10.9868 14.3776 12.4796 13.4501 13.4072C12.5226 14.3346 11.0298 14.3346 8.04427 14.3346C5.05871 14.3346 3.56593 14.3346 2.63843 13.4072C1.71094 12.4796 1.71094 10.9868 1.71094 8.0013Z" stroke="#F47E29" stroke-width="1.5" stroke-linejoin="round"/>
<path d="M1.71094 8.0013C1.71094 5.01574 1.71094 3.52296 2.63843 2.59546C3.56593 1.66797 5.05871 1.66797 8.04427 1.66797C11.0298 1.66797 12.5226 1.66797 13.4501 2.59546C14.3776 3.52296 14.3776 5.01574 14.3776 8.0013C14.3776 10.9868 14.3776 12.4796 13.4501 13.4072C12.5226 14.3346 11.0298 14.3346 8.04427 14.3346C5.05871 14.3346 3.56593 14.3346 2.63843 13.4072C1.71094 12.4796 1.71094 10.9868 1.71094 8.0013Z" stroke="#EF6907" stroke-width="1.5" stroke-linejoin="round"/>
<path d="M1.71094 8.0013C1.71094 5.01574 1.71094 3.52296 2.63843 2.59546C3.56593 1.66797 5.05871 1.66797 8.04427 1.66797C11.0298 1.66797 12.5226 1.66797 13.4501 2.59546C14.3776 3.52296 14.3776 5.01574 14.3776 8.0013C14.3776 10.9868 14.3776 12.4796 13.4501 13.4072C12.5226 14.3346 11.0298 14.3346 8.04427 14.3346C5.05871 14.3346 3.56593 14.3346 2.63843 13.4072C1.71094 12.4796 1.71094 10.9868 1.71094 8.0013Z" stroke="#FFB38A" stroke-width="1.5" stroke-linejoin="round"/>
<path d="M1.71094 8.0013C1.71094 5.01574 1.71094 3.52296 2.63843 2.59546C3.56593 1.66797 5.05871 1.66797 8.04427 1.66797C11.0298 1.66797 12.5226 1.66797 13.4501 2.59546C14.3776 3.52296 14.3776 5.01574 14.3776 8.0013C14.3776 10.9868 14.3776 12.4796 13.4501 13.4072C12.5226 14.3346 11.0298 14.3346 8.04427 14.3346C5.05871 14.3346 3.56593 14.3346 2.63843 13.4072C1.71094 12.4796 1.71094 10.9868 1.71094 8.0013Z" stroke="#FCD0B9" stroke-width="1.5" stroke-linejoin="round"/>
<path d="M1.71094 8.0013C1.71094 5.01574 1.71094 3.52296 2.63843 2.59546C3.56593 1.66797 5.05871 1.66797 8.04427 1.66797C11.0298 1.66797 12.5226 1.66797 13.4501 2.59546C14.3776 3.52296 14.3776 5.01574 14.3776 8.0013C14.3776 10.9868 14.3776 12.4796 13.4501 13.4072C12.5226 14.3346 11.0298 14.3346 8.04427 14.3346C5.05871 14.3346 3.56593 14.3346 2.63843 13.4072C1.71094 12.4796 1.71094 10.9868 1.71094 8.0013Z" stroke="#F9EEE8" stroke-width="1.5" stroke-linejoin="round"/>
<path d="M1.71094 8.0013C1.71094 5.01574 1.71094 3.52296 2.63843 2.59546C3.56593 1.66797 5.05871 1.66797 8.04427 1.66797C11.0298 1.66797 12.5226 1.66797 13.4501 2.59546C14.3776 3.52296 14.3776 5.01574 14.3776 8.0013C14.3776 10.9868 14.3776 12.4796 13.4501 13.4072C12.5226 14.3346 11.0298 14.3346 8.04427 14.3346C5.05871 14.3346 3.56593 14.3346 2.63843 13.4072C1.71094 12.4796 1.71094 10.9868 1.71094 8.0013Z" stroke="white" stroke-width="1.5" stroke-linejoin="round"/>
<path d="M11.043 8C11.043 9.65687 9.69984 11 8.04297 11C6.38612 11 5.04297 9.65687 5.04297 8C5.04297 6.34315 6.38612 5 8.04297 5C9.69984 5 11.043 6.34315 11.043 8Z" stroke="#F47E29" stroke-width="1.5"/>
<path d="M11.043 8C11.043 9.65687 9.69984 11 8.04297 11C6.38612 11 5.04297 9.65687 5.04297 8C5.04297 6.34315 6.38612 5 8.04297 5C9.69984 5 11.043 6.34315 11.043 8Z" stroke="#EF6907" stroke-width="1.5"/>
<path d="M11.043 8C11.043 9.65687 9.69984 11 8.04297 11C6.38612 11 5.04297 9.65687 5.04297 8C5.04297 6.34315 6.38612 5 8.04297 5C9.69984 5 11.043 6.34315 11.043 8Z" stroke="#FFB38A" stroke-width="1.5"/>
<path d="M11.043 8C11.043 9.65687 9.69984 11 8.04297 11C6.38612 11 5.04297 9.65687 5.04297 8C5.04297 6.34315 6.38612 5 8.04297 5C9.69984 5 11.043 6.34315 11.043 8Z" stroke="#FCD0B9" stroke-width="1.5"/>
<path d="M11.043 8C11.043 9.65687 9.69984 11 8.04297 11C6.38612 11 5.04297 9.65687 5.04297 8C5.04297 6.34315 6.38612 5 8.04297 5C9.69984 5 11.043 6.34315 11.043 8Z" stroke="#F9EEE8" stroke-width="1.5"/>
<path d="M11.043 8C11.043 9.65687 9.69984 11 8.04297 11C6.38612 11 5.04297 9.65687 5.04297 8C5.04297 6.34315 6.38612 5 8.04297 5C9.69984 5 11.043 6.34315 11.043 8Z" stroke="white" stroke-width="1.5"/>
<path d="M11.7135 4.33203H11.707" stroke="#F47E29" stroke-width="2" stroke-linecap="round" stroke-linejoin="round"/>
<path d="M11.7135 4.33203H11.707" stroke="#EF6907" stroke-width="2" stroke-linecap="round" stroke-linejoin="round"/>
<path d="M11.7135 4.33203H11.707" stroke="#FFB38A" stroke-width="2" stroke-linecap="round" stroke-linejoin="round"/>
<path d="M11.7135 4.33203H11.707" stroke="#FCD0B9" stroke-width="2" stroke-linecap="round" stroke-linejoin="round"/>
<path d="M11.7135 4.33203H11.707" stroke="#F9EEE8" stroke-width="2" stroke-linecap="round" stroke-linejoin="round"/>
<path d="M11.7135 4.33203H11.707" stroke="white" stroke-width="2" stroke-linecap="round" stroke-linejoin="round"/>
</g>
<defs>
<clipPath id="clip0_4777_1168">
<rect width="16" height="16" fill="white" transform="translate(0.0429688)"/>
</clipPath>
</defs>
</svg>
