<svg width="17" height="16" viewBox="0 0 17 16" fill="none" xmlns="http://www.w3.org/2000/svg">
<path d="M3.3776 6H3.04427C2.41573 6 2.10146 6 1.9062 6.19526C1.71094 6.39053 1.71094 6.7048 1.71094 7.33333V13C1.71094 13.6285 1.71094 13.9428 1.9062 14.1381C2.10146 14.3333 2.41573 14.3333 3.04427 14.3333H3.3776C4.00614 14.3333 4.32041 14.3333 4.51568 14.1381C4.71094 13.9428 4.71094 13.6285 4.71094 13V7.33333C4.71094 6.7048 4.71094 6.39053 4.51568 6.19526C4.32041 6 4.00614 6 3.3776 6Z" fill="#F47E29"/>
<path d="M3.3776 6H3.04427C2.41573 6 2.10146 6 1.9062 6.19526C1.71094 6.39053 1.71094 6.7048 1.71094 7.33333V13C1.71094 13.6285 1.71094 13.9428 1.9062 14.1381C2.10146 14.3333 2.41573 14.3333 3.04427 14.3333H3.3776C4.00614 14.3333 4.32041 14.3333 4.51568 14.1381C4.71094 13.9428 4.71094 13.6285 4.71094 13V7.33333C4.71094 6.7048 4.71094 6.39053 4.51568 6.19526C4.32041 6 4.00614 6 3.3776 6Z" fill="#EF6907"/>
<path d="M3.3776 6H3.04427C2.41573 6 2.10146 6 1.9062 6.19526C1.71094 6.39053 1.71094 6.7048 1.71094 7.33333V13C1.71094 13.6285 1.71094 13.9428 1.9062 14.1381C2.10146 14.3333 2.41573 14.3333 3.04427 14.3333H3.3776C4.00614 14.3333 4.32041 14.3333 4.51568 14.1381C4.71094 13.9428 4.71094 13.6285 4.71094 13V7.33333C4.71094 6.7048 4.71094 6.39053 4.51568 6.19526C4.32041 6 4.00614 6 3.3776 6Z" fill="#FFB38A"/>
<path d="M3.3776 6H3.04427C2.41573 6 2.10146 6 1.9062 6.19526C1.71094 6.39053 1.71094 6.7048 1.71094 7.33333V13C1.71094 13.6285 1.71094 13.9428 1.9062 14.1381C2.10146 14.3333 2.41573 14.3333 3.04427 14.3333H3.3776C4.00614 14.3333 4.32041 14.3333 4.51568 14.1381C4.71094 13.9428 4.71094 13.6285 4.71094 13V7.33333C4.71094 6.7048 4.71094 6.39053 4.51568 6.19526C4.32041 6 4.00614 6 3.3776 6Z" fill="#FCD0B9"/>
<path d="M3.3776 6H3.04427C2.41573 6 2.10146 6 1.9062 6.19526C1.71094 6.39053 1.71094 6.7048 1.71094 7.33333V13C1.71094 13.6285 1.71094 13.9428 1.9062 14.1381C2.10146 14.3333 2.41573 14.3333 3.04427 14.3333H3.3776C4.00614 14.3333 4.32041 14.3333 4.51568 14.1381C4.71094 13.9428 4.71094 13.6285 4.71094 13V7.33333C4.71094 6.7048 4.71094 6.39053 4.51568 6.19526C4.32041 6 4.00614 6 3.3776 6Z" fill="#F9EEE8"/>
<path d="M3.3776 6H3.04427C2.41573 6 2.10146 6 1.9062 6.19526C1.71094 6.39053 1.71094 6.7048 1.71094 7.33333V13C1.71094 13.6285 1.71094 13.9428 1.9062 14.1381C2.10146 14.3333 2.41573 14.3333 3.04427 14.3333H3.3776C4.00614 14.3333 4.32041 14.3333 4.51568 14.1381C4.71094 13.9428 4.71094 13.6285 4.71094 13V7.33333C4.71094 6.7048 4.71094 6.39053 4.51568 6.19526C4.32041 6 4.00614 6 3.3776 6Z" fill="white"/>
<path d="M4.71094 3.16797C4.71094 3.9964 4.03936 4.66797 3.21094 4.66797C2.38251 4.66797 1.71094 3.9964 1.71094 3.16797C1.71094 2.33954 2.38251 1.66797 3.21094 1.66797C4.03936 1.66797 4.71094 2.33954 4.71094 3.16797Z" fill="#F47E29"/>
<path d="M4.71094 3.16797C4.71094 3.9964 4.03936 4.66797 3.21094 4.66797C2.38251 4.66797 1.71094 3.9964 1.71094 3.16797C1.71094 2.33954 2.38251 1.66797 3.21094 1.66797C4.03936 1.66797 4.71094 2.33954 4.71094 3.16797Z" fill="#EF6907"/>
<path d="M4.71094 3.16797C4.71094 3.9964 4.03936 4.66797 3.21094 4.66797C2.38251 4.66797 1.71094 3.9964 1.71094 3.16797C1.71094 2.33954 2.38251 1.66797 3.21094 1.66797C4.03936 1.66797 4.71094 2.33954 4.71094 3.16797Z" fill="#FFB38A"/>
<path d="M4.71094 3.16797C4.71094 3.9964 4.03936 4.66797 3.21094 4.66797C2.38251 4.66797 1.71094 3.9964 1.71094 3.16797C1.71094 2.33954 2.38251 1.66797 3.21094 1.66797C4.03936 1.66797 4.71094 2.33954 4.71094 3.16797Z" fill="#FCD0B9"/>
<path d="M4.71094 3.16797C4.71094 3.9964 4.03936 4.66797 3.21094 4.66797C2.38251 4.66797 1.71094 3.9964 1.71094 3.16797C1.71094 2.33954 2.38251 1.66797 3.21094 1.66797C4.03936 1.66797 4.71094 2.33954 4.71094 3.16797Z" fill="#F9EEE8"/>
<path d="M4.71094 3.16797C4.71094 3.9964 4.03936 4.66797 3.21094 4.66797C2.38251 4.66797 1.71094 3.9964 1.71094 3.16797C1.71094 2.33954 2.38251 1.66797 3.21094 1.66797C4.03936 1.66797 4.71094 2.33954 4.71094 3.16797Z" fill="white"/>
<path d="M7.92697 6H7.3763C6.74777 6 6.4335 6 6.23823 6.19526C6.04297 6.39053 6.04297 6.7048 6.04297 7.33333V13C6.04297 13.6285 6.04297 13.9428 6.23823 14.1381C6.4335 14.3333 6.74777 14.3333 7.3763 14.3333H7.70964C8.33817 14.3333 8.65244 14.3333 8.8477 14.1381C9.04297 13.9428 9.04297 13.6285 9.04297 13L9.04304 10.6667C9.04304 9.5622 9.39504 8.66673 10.4349 8.66673C10.9548 8.66673 11.3763 9.11447 11.3763 9.66673V12.6667C11.3763 13.2953 11.3763 13.6095 11.5716 13.8048C11.7668 14.0001 12.0811 14.0001 12.7096 14.0001H13.0421C13.6705 14.0001 13.9847 14.0001 14.18 13.8049C14.3752 13.6097 14.3753 13.2955 14.3754 12.6671L14.3764 9.00013C14.3764 7.34333 12.8006 6.00016 11.2408 6.00016C10.3529 6.00016 9.56077 6.43539 9.04304 7.116C9.04297 6.69593 9.04297 6.48595 8.95177 6.33C8.89397 6.23124 8.8117 6.14902 8.71297 6.09125C8.55704 6 8.34704 6 7.92697 6Z" fill="#F47E29"/>
<path d="M7.92697 6H7.3763C6.74777 6 6.4335 6 6.23823 6.19526C6.04297 6.39053 6.04297 6.7048 6.04297 7.33333V13C6.04297 13.6285 6.04297 13.9428 6.23823 14.1381C6.4335 14.3333 6.74777 14.3333 7.3763 14.3333H7.70964C8.33817 14.3333 8.65244 14.3333 8.8477 14.1381C9.04297 13.9428 9.04297 13.6285 9.04297 13L9.04304 10.6667C9.04304 9.5622 9.39504 8.66673 10.4349 8.66673C10.9548 8.66673 11.3763 9.11447 11.3763 9.66673V12.6667C11.3763 13.2953 11.3763 13.6095 11.5716 13.8048C11.7668 14.0001 12.0811 14.0001 12.7096 14.0001H13.0421C13.6705 14.0001 13.9847 14.0001 14.18 13.8049C14.3752 13.6097 14.3753 13.2955 14.3754 12.6671L14.3764 9.00013C14.3764 7.34333 12.8006 6.00016 11.2408 6.00016C10.3529 6.00016 9.56077 6.43539 9.04304 7.116C9.04297 6.69593 9.04297 6.48595 8.95177 6.33C8.89397 6.23124 8.8117 6.14902 8.71297 6.09125C8.55704 6 8.34704 6 7.92697 6Z" fill="#EF6907"/>
<path d="M7.92697 6H7.3763C6.74777 6 6.4335 6 6.23823 6.19526C6.04297 6.39053 6.04297 6.7048 6.04297 7.33333V13C6.04297 13.6285 6.04297 13.9428 6.23823 14.1381C6.4335 14.3333 6.74777 14.3333 7.3763 14.3333H7.70964C8.33817 14.3333 8.65244 14.3333 8.8477 14.1381C9.04297 13.9428 9.04297 13.6285 9.04297 13L9.04304 10.6667C9.04304 9.5622 9.39504 8.66673 10.4349 8.66673C10.9548 8.66673 11.3763 9.11447 11.3763 9.66673V12.6667C11.3763 13.2953 11.3763 13.6095 11.5716 13.8048C11.7668 14.0001 12.0811 14.0001 12.7096 14.0001H13.0421C13.6705 14.0001 13.9847 14.0001 14.18 13.8049C14.3752 13.6097 14.3753 13.2955 14.3754 12.6671L14.3764 9.00013C14.3764 7.34333 12.8006 6.00016 11.2408 6.00016C10.3529 6.00016 9.56077 6.43539 9.04304 7.116C9.04297 6.69593 9.04297 6.48595 8.95177 6.33C8.89397 6.23124 8.8117 6.14902 8.71297 6.09125C8.55704 6 8.34704 6 7.92697 6Z" fill="#FFB38A"/>
<path d="M7.92697 6H7.3763C6.74777 6 6.4335 6 6.23823 6.19526C6.04297 6.39053 6.04297 6.7048 6.04297 7.33333V13C6.04297 13.6285 6.04297 13.9428 6.23823 14.1381C6.4335 14.3333 6.74777 14.3333 7.3763 14.3333H7.70964C8.33817 14.3333 8.65244 14.3333 8.8477 14.1381C9.04297 13.9428 9.04297 13.6285 9.04297 13L9.04304 10.6667C9.04304 9.5622 9.39504 8.66673 10.4349 8.66673C10.9548 8.66673 11.3763 9.11447 11.3763 9.66673V12.6667C11.3763 13.2953 11.3763 13.6095 11.5716 13.8048C11.7668 14.0001 12.0811 14.0001 12.7096 14.0001H13.0421C13.6705 14.0001 13.9847 14.0001 14.18 13.8049C14.3752 13.6097 14.3753 13.2955 14.3754 12.6671L14.3764 9.00013C14.3764 7.34333 12.8006 6.00016 11.2408 6.00016C10.3529 6.00016 9.56077 6.43539 9.04304 7.116C9.04297 6.69593 9.04297 6.48595 8.95177 6.33C8.89397 6.23124 8.8117 6.14902 8.71297 6.09125C8.55704 6 8.34704 6 7.92697 6Z" fill="#FCD0B9"/>
<path d="M7.92697 6H7.3763C6.74777 6 6.4335 6 6.23823 6.19526C6.04297 6.39053 6.04297 6.7048 6.04297 7.33333V13C6.04297 13.6285 6.04297 13.9428 6.23823 14.1381C6.4335 14.3333 6.74777 14.3333 7.3763 14.3333H7.70964C8.33817 14.3333 8.65244 14.3333 8.8477 14.1381C9.04297 13.9428 9.04297 13.6285 9.04297 13L9.04304 10.6667C9.04304 9.5622 9.39504 8.66673 10.4349 8.66673C10.9548 8.66673 11.3763 9.11447 11.3763 9.66673V12.6667C11.3763 13.2953 11.3763 13.6095 11.5716 13.8048C11.7668 14.0001 12.0811 14.0001 12.7096 14.0001H13.0421C13.6705 14.0001 13.9847 14.0001 14.18 13.8049C14.3752 13.6097 14.3753 13.2955 14.3754 12.6671L14.3764 9.00013C14.3764 7.34333 12.8006 6.00016 11.2408 6.00016C10.3529 6.00016 9.56077 6.43539 9.04304 7.116C9.04297 6.69593 9.04297 6.48595 8.95177 6.33C8.89397 6.23124 8.8117 6.14902 8.71297 6.09125C8.55704 6 8.34704 6 7.92697 6Z" fill="#F9EEE8"/>
<path d="M7.92697 6H7.3763C6.74777 6 6.4335 6 6.23823 6.19526C6.04297 6.39053 6.04297 6.7048 6.04297 7.33333V13C6.04297 13.6285 6.04297 13.9428 6.23823 14.1381C6.4335 14.3333 6.74777 14.3333 7.3763 14.3333H7.70964C8.33817 14.3333 8.65244 14.3333 8.8477 14.1381C9.04297 13.9428 9.04297 13.6285 9.04297 13L9.04304 10.6667C9.04304 9.5622 9.39504 8.66673 10.4349 8.66673C10.9548 8.66673 11.3763 9.11447 11.3763 9.66673V12.6667C11.3763 13.2953 11.3763 13.6095 11.5716 13.8048C11.7668 14.0001 12.0811 14.0001 12.7096 14.0001H13.0421C13.6705 14.0001 13.9847 14.0001 14.18 13.8049C14.3752 13.6097 14.3753 13.2955 14.3754 12.6671L14.3764 9.00013C14.3764 7.34333 12.8006 6.00016 11.2408 6.00016C10.3529 6.00016 9.56077 6.43539 9.04304 7.116C9.04297 6.69593 9.04297 6.48595 8.95177 6.33C8.89397 6.23124 8.8117 6.14902 8.71297 6.09125C8.55704 6 8.34704 6 7.92697 6Z" fill="white"/>
</svg>
