<svg width="20" height="20" viewBox="0 0 20 20" fill="none" xmlns="http://www.w3.org/2000/svg">
<path d="M4.16536 7.5H3.7487C2.96302 7.5 2.57019 7.5 2.32611 7.74407C2.08203 7.98816 2.08203 8.381 2.08203 9.16667V16.25C2.08203 17.0357 2.08203 17.4285 2.32611 17.6726C2.57019 17.9167 2.96302 17.9167 3.7487 17.9167H4.16536C4.95104 17.9167 5.34387 17.9167 5.58796 17.6726C5.83203 17.4285 5.83203 17.0357 5.83203 16.25V9.16667C5.83203 8.381 5.83203 7.98816 5.58796 7.74407C5.34387 7.5 4.95104 7.5 4.16536 7.5Z" fill="#08879F"/>
<path d="M5.83203 3.95703C5.83203 4.99256 4.99256 5.83203 3.95703 5.83203C2.9215 5.83203 2.08203 4.99256 2.08203 3.95703C2.08203 2.9215 2.9215 2.08203 3.95703 2.08203C4.99256 2.08203 5.83203 2.9215 5.83203 3.95703Z" fill="#08879F"/>
<path d="M9.855 7.5H9.16667C8.381 7.5 7.98816 7.5 7.74407 7.74407C7.5 7.98816 7.5 8.381 7.5 9.16667V16.25C7.5 17.0357 7.5 17.4285 7.74407 17.6726C7.98816 17.9167 8.381 17.9167 9.16667 17.9167H9.58333C10.369 17.9167 10.7618 17.9167 11.0059 17.6726C11.25 17.4285 11.25 17.0357 11.25 16.25L11.2501 13.3334C11.2501 11.9527 11.6901 10.8334 12.9899 10.8334C13.6398 10.8334 14.1667 11.3931 14.1667 12.0834V15.8334C14.1667 16.6191 14.1667 17.0119 14.4107 17.256C14.6547 17.5001 15.0477 17.5001 15.8333 17.5001H16.2489C17.0344 17.5001 17.4272 17.5001 17.6712 17.2561C17.9153 17.0121 17.9154 16.6193 17.9156 15.8338L17.9167 11.2502C17.9167 9.17917 15.947 7.5002 13.9973 7.5002C12.8874 7.5002 11.8973 8.04424 11.2501 8.895C11.25 8.36992 11.25 8.10744 11.136 7.9125C11.0638 7.78905 10.9609 7.68628 10.8375 7.61406C10.6426 7.5 10.3801 7.5 9.855 7.5Z" fill="#08879F"/>
</svg>
