<svg width="32" height="32" viewBox="0 0 32 32" fill="none" xmlns="http://www.w3.org/2000/svg">
<path d="M22.4004 4.39922C22.4004 4.08096 22.5269 3.77573 22.7519 3.55069C22.977 3.32565 23.2822 3.19922 23.6004 3.19922H27.6004C27.9187 3.19922 28.2239 3.32565 28.449 3.55069C28.674 3.77573 28.8004 4.08096 28.8004 4.39922V8.39922C28.8004 8.71748 28.674 9.0227 28.449 9.24775C28.2239 9.47279 27.9187 9.59922 27.6004 9.59922C27.2822 9.59922 26.977 9.47279 26.7519 9.24775C26.5269 9.0227 26.4004 8.71748 26.4004 8.39922V7.29522L19.2484 14.4472C19.0234 14.6719 18.7184 14.7982 18.4004 14.7982C18.0824 14.7982 17.7774 14.6719 17.5524 14.4472L13.6004 10.4952L6.84844 17.2472C6.73858 17.3651 6.6061 17.4597 6.4589 17.5253C6.3117 17.5909 6.1528 17.6261 5.99168 17.629C5.83055 17.6318 5.67051 17.6022 5.52109 17.5418C5.37166 17.4815 5.23593 17.3916 5.12198 17.2777C5.00803 17.1637 4.9182 17.028 4.85784 16.8786C4.79749 16.7292 4.76785 16.5691 4.77069 16.408C4.77354 16.2469 4.8088 16.088 4.87439 15.9408C4.93998 15.7936 5.03454 15.6611 5.15244 15.5512L12.7524 7.95122C12.9774 7.7265 13.2824 7.60027 13.6004 7.60027C13.9184 7.60027 14.2234 7.7265 14.4484 7.95122L18.4004 11.9032L24.7044 5.59922H23.6004C23.2822 5.59922 22.977 5.47279 22.7519 5.24775C22.5269 5.0227 22.4004 4.71748 22.4004 4.39922ZM6.00044 22.3992C6.3187 22.3992 6.62393 22.5256 6.84897 22.7507C7.07401 22.9757 7.20044 23.281 7.20044 23.5992V27.5992C7.20044 27.9175 7.07401 28.2227 6.84897 28.4477C6.62393 28.6728 6.3187 28.7992 6.00044 28.7992C5.68218 28.7992 5.37696 28.6728 5.15191 28.4477C4.92687 28.2227 4.80044 27.9175 4.80044 27.5992V23.5992C4.80044 23.281 4.92687 22.9757 5.15191 22.7507C5.37696 22.5256 5.68218 22.3992 6.00044 22.3992ZM13.6004 18.7992C13.6004 18.481 13.474 18.1757 13.249 17.9507C13.0239 17.7256 12.7187 17.5992 12.4004 17.5992C12.0822 17.5992 11.777 17.7256 11.5519 17.9507C11.3269 18.1757 11.2004 18.481 11.2004 18.7992V27.5992C11.2004 27.9175 11.3269 28.2227 11.5519 28.4477C11.777 28.6728 12.0822 28.7992 12.4004 28.7992C12.7187 28.7992 13.0239 28.6728 13.249 28.4477C13.474 28.2227 13.6004 27.9175 13.6004 27.5992V18.7992ZM18.8004 20.7992C19.1187 20.7992 19.4239 20.9256 19.649 21.1507C19.874 21.3757 20.0004 21.681 20.0004 21.9992V27.5992C20.0004 27.9175 19.874 28.2227 19.649 28.4477C19.4239 28.6728 19.1187 28.7992 18.8004 28.7992C18.4822 28.7992 18.177 28.6728 17.9519 28.4477C17.7269 28.2227 17.6004 27.9175 17.6004 27.5992V21.9992C17.6004 21.681 17.7269 21.3757 17.9519 21.1507C18.177 20.9256 18.4822 20.7992 18.8004 20.7992ZM26.4004 15.5992C26.4004 15.281 26.274 14.9757 26.049 14.7507C25.8239 14.5256 25.5187 14.3992 25.2004 14.3992C24.8822 14.3992 24.577 14.5256 24.3519 14.7507C24.1269 14.9757 24.0004 15.281 24.0004 15.5992V27.5992C24.0004 27.9175 24.1269 28.2227 24.3519 28.4477C24.577 28.6728 24.8822 28.7992 25.2004 28.7992C25.5187 28.7992 25.8239 28.6728 26.049 28.4477C26.274 28.2227 26.4004 27.9175 26.4004 27.5992V15.5992Z" fill="white"/>
</svg>
