<svg width="18" height="18" viewBox="0 0 18 18" fill="none" xmlns="http://www.w3.org/2000/svg">
<path d="M6.81841 3.79207L6.62847 3.3647C6.37262 2.78904 6.24469 2.50121 6.03417 2.29777C5.89521 2.16347 5.73168 2.0572 5.55252 1.98475C5.2811 1.875 4.96612 1.875 4.33618 1.875C3.39818 1.875 2.92919 1.875 2.56378 2.10272C2.33965 2.24239 2.1253 2.47951 2.0089 2.71654C1.81909 3.10301 1.86214 3.5288 1.94826 4.38038C2.66281 11.4468 6.55326 15.3372 13.6196 16.0518C14.4712 16.1379 14.897 16.1809 15.2835 15.9911C15.5205 15.8747 15.7576 15.6603 15.8973 15.4362C16.125 15.0708 16.125 14.6018 16.125 13.6638C16.125 13.0339 16.125 12.7189 16.0153 12.4475C15.9428 12.2683 15.8365 12.1048 15.7022 11.9658C15.4988 11.7553 15.211 11.6274 14.6353 11.3715L14.2079 11.1816C13.7035 10.9574 13.4513 10.8453 13.1983 10.824C12.9292 10.8014 12.6589 10.8516 12.4159 10.9693C12.1874 11.08 11.9923 11.2752 11.602 11.6655C11.218 12.0495 11.026 12.2415 10.7759 12.3545C10.5326 12.4645 10.1907 12.5113 9.92676 12.4707C9.65556 12.4289 9.45621 12.3165 9.05751 12.0916C7.64413 11.2944 6.70555 10.3558 5.9084 8.94251C5.68354 8.54381 5.57111 8.34446 5.52934 8.07326C5.48869 7.80933 5.53546 7.46738 5.64548 7.22406C5.75855 6.97402 5.95054 6.78202 6.33454 6.39803C6.72485 6.00771 6.92001 5.81256 7.0307 5.58407C7.14845 5.34103 7.19863 5.07078 7.17598 4.80167C7.15468 4.54868 7.04259 4.29647 6.81841 3.79207Z" fill="#F47E29"/>
<path d="M6.81841 3.79207L6.62847 3.3647C6.37262 2.78904 6.24469 2.50121 6.03417 2.29777C5.89521 2.16347 5.73168 2.0572 5.55252 1.98475C5.2811 1.875 4.96612 1.875 4.33618 1.875C3.39818 1.875 2.92919 1.875 2.56378 2.10272C2.33965 2.24239 2.1253 2.47951 2.0089 2.71654C1.81909 3.10301 1.86214 3.5288 1.94826 4.38038C2.66281 11.4468 6.55326 15.3372 13.6196 16.0518C14.4712 16.1379 14.897 16.1809 15.2835 15.9911C15.5205 15.8747 15.7576 15.6603 15.8973 15.4362C16.125 15.0708 16.125 14.6018 16.125 13.6638C16.125 13.0339 16.125 12.7189 16.0153 12.4475C15.9428 12.2683 15.8365 12.1048 15.7022 11.9658C15.4988 11.7553 15.211 11.6274 14.6353 11.3715L14.2079 11.1816C13.7035 10.9574 13.4513 10.8453 13.1983 10.824C12.9292 10.8014 12.6589 10.8516 12.4159 10.9693C12.1874 11.08 11.9923 11.2752 11.602 11.6655C11.218 12.0495 11.026 12.2415 10.7759 12.3545C10.5326 12.4645 10.1907 12.5113 9.92676 12.4707C9.65556 12.4289 9.45621 12.3165 9.05751 12.0916C7.64413 11.2944 6.70555 10.3558 5.9084 8.94251C5.68354 8.54381 5.57111 8.34446 5.52934 8.07326C5.48869 7.80933 5.53546 7.46738 5.64548 7.22406C5.75855 6.97402 5.95054 6.78202 6.33454 6.39803C6.72485 6.00771 6.92001 5.81256 7.0307 5.58407C7.14845 5.34103 7.19863 5.07078 7.17598 4.80167C7.15468 4.54868 7.04259 4.29647 6.81841 3.79207Z" fill="#EF6907"/>
<path d="M6.81841 3.79207L6.62847 3.3647C6.37262 2.78904 6.24469 2.50121 6.03417 2.29777C5.89521 2.16347 5.73168 2.0572 5.55252 1.98475C5.2811 1.875 4.96612 1.875 4.33618 1.875C3.39818 1.875 2.92919 1.875 2.56378 2.10272C2.33965 2.24239 2.1253 2.47951 2.0089 2.71654C1.81909 3.10301 1.86214 3.5288 1.94826 4.38038C2.66281 11.4468 6.55326 15.3372 13.6196 16.0518C14.4712 16.1379 14.897 16.1809 15.2835 15.9911C15.5205 15.8747 15.7576 15.6603 15.8973 15.4362C16.125 15.0708 16.125 14.6018 16.125 13.6638C16.125 13.0339 16.125 12.7189 16.0153 12.4475C15.9428 12.2683 15.8365 12.1048 15.7022 11.9658C15.4988 11.7553 15.211 11.6274 14.6353 11.3715L14.2079 11.1816C13.7035 10.9574 13.4513 10.8453 13.1983 10.824C12.9292 10.8014 12.6589 10.8516 12.4159 10.9693C12.1874 11.08 11.9923 11.2752 11.602 11.6655C11.218 12.0495 11.026 12.2415 10.7759 12.3545C10.5326 12.4645 10.1907 12.5113 9.92676 12.4707C9.65556 12.4289 9.45621 12.3165 9.05751 12.0916C7.64413 11.2944 6.70555 10.3558 5.9084 8.94251C5.68354 8.54381 5.57111 8.34446 5.52934 8.07326C5.48869 7.80933 5.53546 7.46738 5.64548 7.22406C5.75855 6.97402 5.95054 6.78202 6.33454 6.39803C6.72485 6.00771 6.92001 5.81256 7.0307 5.58407C7.14845 5.34103 7.19863 5.07078 7.17598 4.80167C7.15468 4.54868 7.04259 4.29647 6.81841 3.79207Z" fill="#FFB38A"/>
<path d="M6.81841 3.79207L6.62847 3.3647C6.37262 2.78904 6.24469 2.50121 6.03417 2.29777C5.89521 2.16347 5.73168 2.0572 5.55252 1.98475C5.2811 1.875 4.96612 1.875 4.33618 1.875C3.39818 1.875 2.92919 1.875 2.56378 2.10272C2.33965 2.24239 2.1253 2.47951 2.0089 2.71654C1.81909 3.10301 1.86214 3.5288 1.94826 4.38038C2.66281 11.4468 6.55326 15.3372 13.6196 16.0518C14.4712 16.1379 14.897 16.1809 15.2835 15.9911C15.5205 15.8747 15.7576 15.6603 15.8973 15.4362C16.125 15.0708 16.125 14.6018 16.125 13.6638C16.125 13.0339 16.125 12.7189 16.0153 12.4475C15.9428 12.2683 15.8365 12.1048 15.7022 11.9658C15.4988 11.7553 15.211 11.6274 14.6353 11.3715L14.2079 11.1816C13.7035 10.9574 13.4513 10.8453 13.1983 10.824C12.9292 10.8014 12.6589 10.8516 12.4159 10.9693C12.1874 11.08 11.9923 11.2752 11.602 11.6655C11.218 12.0495 11.026 12.2415 10.7759 12.3545C10.5326 12.4645 10.1907 12.5113 9.92676 12.4707C9.65556 12.4289 9.45621 12.3165 9.05751 12.0916C7.64413 11.2944 6.70555 10.3558 5.9084 8.94251C5.68354 8.54381 5.57111 8.34446 5.52934 8.07326C5.48869 7.80933 5.53546 7.46738 5.64548 7.22406C5.75855 6.97402 5.95054 6.78202 6.33454 6.39803C6.72485 6.00771 6.92001 5.81256 7.0307 5.58407C7.14845 5.34103 7.19863 5.07078 7.17598 4.80167C7.15468 4.54868 7.04259 4.29647 6.81841 3.79207Z" fill="#FCD0B9"/>
<path d="M6.81841 3.79207L6.62847 3.3647C6.37262 2.78904 6.24469 2.50121 6.03417 2.29777C5.89521 2.16347 5.73168 2.0572 5.55252 1.98475C5.2811 1.875 4.96612 1.875 4.33618 1.875C3.39818 1.875 2.92919 1.875 2.56378 2.10272C2.33965 2.24239 2.1253 2.47951 2.0089 2.71654C1.81909 3.10301 1.86214 3.5288 1.94826 4.38038C2.66281 11.4468 6.55326 15.3372 13.6196 16.0518C14.4712 16.1379 14.897 16.1809 15.2835 15.9911C15.5205 15.8747 15.7576 15.6603 15.8973 15.4362C16.125 15.0708 16.125 14.6018 16.125 13.6638C16.125 13.0339 16.125 12.7189 16.0153 12.4475C15.9428 12.2683 15.8365 12.1048 15.7022 11.9658C15.4988 11.7553 15.211 11.6274 14.6353 11.3715L14.2079 11.1816C13.7035 10.9574 13.4513 10.8453 13.1983 10.824C12.9292 10.8014 12.6589 10.8516 12.4159 10.9693C12.1874 11.08 11.9923 11.2752 11.602 11.6655C11.218 12.0495 11.026 12.2415 10.7759 12.3545C10.5326 12.4645 10.1907 12.5113 9.92676 12.4707C9.65556 12.4289 9.45621 12.3165 9.05751 12.0916C7.64413 11.2944 6.70555 10.3558 5.9084 8.94251C5.68354 8.54381 5.57111 8.34446 5.52934 8.07326C5.48869 7.80933 5.53546 7.46738 5.64548 7.22406C5.75855 6.97402 5.95054 6.78202 6.33454 6.39803C6.72485 6.00771 6.92001 5.81256 7.0307 5.58407C7.14845 5.34103 7.19863 5.07078 7.17598 4.80167C7.15468 4.54868 7.04259 4.29647 6.81841 3.79207Z" fill="#F9EEE8"/>
<path d="M6.81841 3.79207L6.62847 3.3647C6.37262 2.78904 6.24469 2.50121 6.03417 2.29777C5.89521 2.16347 5.73168 2.0572 5.55252 1.98475C5.2811 1.875 4.96612 1.875 4.33618 1.875C3.39818 1.875 2.92919 1.875 2.56378 2.10272C2.33965 2.24239 2.1253 2.47951 2.0089 2.71654C1.81909 3.10301 1.86214 3.5288 1.94826 4.38038C2.66281 11.4468 6.55326 15.3372 13.6196 16.0518C14.4712 16.1379 14.897 16.1809 15.2835 15.9911C15.5205 15.8747 15.7576 15.6603 15.8973 15.4362C16.125 15.0708 16.125 14.6018 16.125 13.6638C16.125 13.0339 16.125 12.7189 16.0153 12.4475C15.9428 12.2683 15.8365 12.1048 15.7022 11.9658C15.4988 11.7553 15.211 11.6274 14.6353 11.3715L14.2079 11.1816C13.7035 10.9574 13.4513 10.8453 13.1983 10.824C12.9292 10.8014 12.6589 10.8516 12.4159 10.9693C12.1874 11.08 11.9923 11.2752 11.602 11.6655C11.218 12.0495 11.026 12.2415 10.7759 12.3545C10.5326 12.4645 10.1907 12.5113 9.92676 12.4707C9.65556 12.4289 9.45621 12.3165 9.05751 12.0916C7.64413 11.2944 6.70555 10.3558 5.9084 8.94251C5.68354 8.54381 5.57111 8.34446 5.52934 8.07326C5.48869 7.80933 5.53546 7.46738 5.64548 7.22406C5.75855 6.97402 5.95054 6.78202 6.33454 6.39803C6.72485 6.00771 6.92001 5.81256 7.0307 5.58407C7.14845 5.34103 7.19863 5.07078 7.17598 4.80167C7.15468 4.54868 7.04259 4.29647 6.81841 3.79207Z" fill="white"/>
</svg>
