<svg width="18" height="18" viewBox="0 0 18 18" fill="none" xmlns="http://www.w3.org/2000/svg">
<path fill-rule="evenodd" clip-rule="evenodd" d="M0.9375 4.625C0.9375 3.41688 1.92196 2.4375 3.13636 2.4375H14.8636C16.078 2.4375 17.0625 3.41688 17.0625 4.625V13.375C17.0625 14.5831 16.078 15.5625 14.8636 15.5625H3.13636C1.92196 15.5625 0.9375 14.5831 0.9375 13.375V4.625ZM3.13636 14.1041C2.73156 14.1041 2.4034 13.7776 2.4034 13.375V6.53393L8.01667 9.32603C8.63565 9.63398 9.36435 9.63398 9.98333 9.32603L15.5966 6.53393V13.375C15.5966 13.7776 15.2684 14.1041 14.8636 14.1041H3.13636Z" fill="#F47E29"/>
<path fill-rule="evenodd" clip-rule="evenodd" d="M0.9375 4.625C0.9375 3.41688 1.92196 2.4375 3.13636 2.4375H14.8636C16.078 2.4375 17.0625 3.41688 17.0625 4.625V13.375C17.0625 14.5831 16.078 15.5625 14.8636 15.5625H3.13636C1.92196 15.5625 0.9375 14.5831 0.9375 13.375V4.625ZM3.13636 14.1041C2.73156 14.1041 2.4034 13.7776 2.4034 13.375V6.53393L8.01667 9.32603C8.63565 9.63398 9.36435 9.63398 9.98333 9.32603L15.5966 6.53393V13.375C15.5966 13.7776 15.2684 14.1041 14.8636 14.1041H3.13636Z" fill="#EF6907"/>
<path fill-rule="evenodd" clip-rule="evenodd" d="M0.9375 4.625C0.9375 3.41688 1.92196 2.4375 3.13636 2.4375H14.8636C16.078 2.4375 17.0625 3.41688 17.0625 4.625V13.375C17.0625 14.5831 16.078 15.5625 14.8636 15.5625H3.13636C1.92196 15.5625 0.9375 14.5831 0.9375 13.375V4.625ZM3.13636 14.1041C2.73156 14.1041 2.4034 13.7776 2.4034 13.375V6.53393L8.01667 9.32603C8.63565 9.63398 9.36435 9.63398 9.98333 9.32603L15.5966 6.53393V13.375C15.5966 13.7776 15.2684 14.1041 14.8636 14.1041H3.13636Z" fill="#FFB38A"/>
<path fill-rule="evenodd" clip-rule="evenodd" d="M0.9375 4.625C0.9375 3.41688 1.92196 2.4375 3.13636 2.4375H14.8636C16.078 2.4375 17.0625 3.41688 17.0625 4.625V13.375C17.0625 14.5831 16.078 15.5625 14.8636 15.5625H3.13636C1.92196 15.5625 0.9375 14.5831 0.9375 13.375V4.625ZM3.13636 14.1041C2.73156 14.1041 2.4034 13.7776 2.4034 13.375V6.53393L8.01667 9.32603C8.63565 9.63398 9.36435 9.63398 9.98333 9.32603L15.5966 6.53393V13.375C15.5966 13.7776 15.2684 14.1041 14.8636 14.1041H3.13636Z" fill="#FCD0B9"/>
<path fill-rule="evenodd" clip-rule="evenodd" d="M0.9375 4.625C0.9375 3.41688 1.92196 2.4375 3.13636 2.4375H14.8636C16.078 2.4375 17.0625 3.41688 17.0625 4.625V13.375C17.0625 14.5831 16.078 15.5625 14.8636 15.5625H3.13636C1.92196 15.5625 0.9375 14.5831 0.9375 13.375V4.625ZM3.13636 14.1041C2.73156 14.1041 2.4034 13.7776 2.4034 13.375V6.53393L8.01667 9.32603C8.63565 9.63398 9.36435 9.63398 9.98333 9.32603L15.5966 6.53393V13.375C15.5966 13.7776 15.2684 14.1041 14.8636 14.1041H3.13636Z" fill="#F9EEE8"/>
<path fill-rule="evenodd" clip-rule="evenodd" d="M0.9375 4.625C0.9375 3.41688 1.92196 2.4375 3.13636 2.4375H14.8636C16.078 2.4375 17.0625 3.41688 17.0625 4.625V13.375C17.0625 14.5831 16.078 15.5625 14.8636 15.5625H3.13636C1.92196 15.5625 0.9375 14.5831 0.9375 13.375V4.625ZM3.13636 14.1041C2.73156 14.1041 2.4034 13.7776 2.4034 13.375V6.53393L8.01667 9.32603C8.63565 9.63398 9.36435 9.63398 9.98333 9.32603L15.5966 6.53393V13.375C15.5966 13.7776 15.2684 14.1041 14.8636 14.1041H3.13636Z" fill="white"/>
</svg>
