<svg width="17" height="16" viewBox="0 0 17 16" fill="none" xmlns="http://www.w3.org/2000/svg">
<g clip-path="url(#clip0_4777_1166)">
<path fill-rule="evenodd" clip-rule="evenodd" d="M8.04167 2.16797C6.39254 2.16797 4.82369 2.27438 3.40667 2.46642C1.89817 2.67084 0.875 3.9962 0.875 5.46709V10.5355C0.875 12.0064 1.89817 13.3318 3.40667 13.5362C4.82369 13.7282 6.39254 13.8346 8.04167 13.8346C9.6908 13.8346 11.2597 13.7282 12.6767 13.5362C14.1851 13.3318 15.2083 12.0064 15.2083 10.5355V5.4671C15.2083 3.9962 14.1851 2.67084 12.6767 2.46642C11.2597 2.27438 9.6908 2.16797 8.04167 2.16797ZM6.9656 5.57256C6.81113 5.47988 6.61874 5.47745 6.46199 5.5662C6.30523 5.65496 6.20833 5.82117 6.20833 6.0013V10.0013C6.20833 10.1814 6.30523 10.3476 6.46199 10.4364C6.61874 10.5252 6.81113 10.5227 6.9656 10.43L10.2989 8.43004C10.4495 8.3397 10.5417 8.1769 10.5417 8.0013C10.5417 7.8257 10.4495 7.6629 10.2989 7.57257L6.9656 5.57256Z" fill="#F47E29"/>
<path fill-rule="evenodd" clip-rule="evenodd" d="M8.04167 2.16797C6.39254 2.16797 4.82369 2.27438 3.40667 2.46642C1.89817 2.67084 0.875 3.9962 0.875 5.46709V10.5355C0.875 12.0064 1.89817 13.3318 3.40667 13.5362C4.82369 13.7282 6.39254 13.8346 8.04167 13.8346C9.6908 13.8346 11.2597 13.7282 12.6767 13.5362C14.1851 13.3318 15.2083 12.0064 15.2083 10.5355V5.4671C15.2083 3.9962 14.1851 2.67084 12.6767 2.46642C11.2597 2.27438 9.6908 2.16797 8.04167 2.16797ZM6.9656 5.57256C6.81113 5.47988 6.61874 5.47745 6.46199 5.5662C6.30523 5.65496 6.20833 5.82117 6.20833 6.0013V10.0013C6.20833 10.1814 6.30523 10.3476 6.46199 10.4364C6.61874 10.5252 6.81113 10.5227 6.9656 10.43L10.2989 8.43004C10.4495 8.3397 10.5417 8.1769 10.5417 8.0013C10.5417 7.8257 10.4495 7.6629 10.2989 7.57257L6.9656 5.57256Z" fill="#EF6907"/>
<path fill-rule="evenodd" clip-rule="evenodd" d="M8.04167 2.16797C6.39254 2.16797 4.82369 2.27438 3.40667 2.46642C1.89817 2.67084 0.875 3.9962 0.875 5.46709V10.5355C0.875 12.0064 1.89817 13.3318 3.40667 13.5362C4.82369 13.7282 6.39254 13.8346 8.04167 13.8346C9.6908 13.8346 11.2597 13.7282 12.6767 13.5362C14.1851 13.3318 15.2083 12.0064 15.2083 10.5355V5.4671C15.2083 3.9962 14.1851 2.67084 12.6767 2.46642C11.2597 2.27438 9.6908 2.16797 8.04167 2.16797ZM6.9656 5.57256C6.81113 5.47988 6.61874 5.47745 6.46199 5.5662C6.30523 5.65496 6.20833 5.82117 6.20833 6.0013V10.0013C6.20833 10.1814 6.30523 10.3476 6.46199 10.4364C6.61874 10.5252 6.81113 10.5227 6.9656 10.43L10.2989 8.43004C10.4495 8.3397 10.5417 8.1769 10.5417 8.0013C10.5417 7.8257 10.4495 7.6629 10.2989 7.57257L6.9656 5.57256Z" fill="#FFB38A"/>
<path fill-rule="evenodd" clip-rule="evenodd" d="M8.04167 2.16797C6.39254 2.16797 4.82369 2.27438 3.40667 2.46642C1.89817 2.67084 0.875 3.9962 0.875 5.46709V10.5355C0.875 12.0064 1.89817 13.3318 3.40667 13.5362C4.82369 13.7282 6.39254 13.8346 8.04167 13.8346C9.6908 13.8346 11.2597 13.7282 12.6767 13.5362C14.1851 13.3318 15.2083 12.0064 15.2083 10.5355V5.4671C15.2083 3.9962 14.1851 2.67084 12.6767 2.46642C11.2597 2.27438 9.6908 2.16797 8.04167 2.16797ZM6.9656 5.57256C6.81113 5.47988 6.61874 5.47745 6.46199 5.5662C6.30523 5.65496 6.20833 5.82117 6.20833 6.0013V10.0013C6.20833 10.1814 6.30523 10.3476 6.46199 10.4364C6.61874 10.5252 6.81113 10.5227 6.9656 10.43L10.2989 8.43004C10.4495 8.3397 10.5417 8.1769 10.5417 8.0013C10.5417 7.8257 10.4495 7.6629 10.2989 7.57257L6.9656 5.57256Z" fill="#FCD0B9"/>
<path fill-rule="evenodd" clip-rule="evenodd" d="M8.04167 2.16797C6.39254 2.16797 4.82369 2.27438 3.40667 2.46642C1.89817 2.67084 0.875 3.9962 0.875 5.46709V10.5355C0.875 12.0064 1.89817 13.3318 3.40667 13.5362C4.82369 13.7282 6.39254 13.8346 8.04167 13.8346C9.6908 13.8346 11.2597 13.7282 12.6767 13.5362C14.1851 13.3318 15.2083 12.0064 15.2083 10.5355V5.4671C15.2083 3.9962 14.1851 2.67084 12.6767 2.46642C11.2597 2.27438 9.6908 2.16797 8.04167 2.16797ZM6.9656 5.57256C6.81113 5.47988 6.61874 5.47745 6.46199 5.5662C6.30523 5.65496 6.20833 5.82117 6.20833 6.0013V10.0013C6.20833 10.1814 6.30523 10.3476 6.46199 10.4364C6.61874 10.5252 6.81113 10.5227 6.9656 10.43L10.2989 8.43004C10.4495 8.3397 10.5417 8.1769 10.5417 8.0013C10.5417 7.8257 10.4495 7.6629 10.2989 7.57257L6.9656 5.57256Z" fill="#F9EEE8"/>
<path fill-rule="evenodd" clip-rule="evenodd" d="M8.04167 2.16797C6.39254 2.16797 4.82369 2.27438 3.40667 2.46642C1.89817 2.67084 0.875 3.9962 0.875 5.46709V10.5355C0.875 12.0064 1.89817 13.3318 3.40667 13.5362C4.82369 13.7282 6.39254 13.8346 8.04167 13.8346C9.6908 13.8346 11.2597 13.7282 12.6767 13.5362C14.1851 13.3318 15.2083 12.0064 15.2083 10.5355V5.4671C15.2083 3.9962 14.1851 2.67084 12.6767 2.46642C11.2597 2.27438 9.6908 2.16797 8.04167 2.16797ZM6.9656 5.57256C6.81113 5.47988 6.61874 5.47745 6.46199 5.5662C6.30523 5.65496 6.20833 5.82117 6.20833 6.0013V10.0013C6.20833 10.1814 6.30523 10.3476 6.46199 10.4364C6.61874 10.5252 6.81113 10.5227 6.9656 10.43L10.2989 8.43004C10.4495 8.3397 10.5417 8.1769 10.5417 8.0013C10.5417 7.8257 10.4495 7.6629 10.2989 7.57257L6.9656 5.57256Z" fill="white"/>
</g>
<defs>
<clipPath id="clip0_4777_1166">
<rect width="16" height="16" fill="white" transform="translate(0.0429688)"/>
</clipPath>
</defs>
</svg>
