<svg width="20" height="20" viewBox="0 0 20 20" fill="none" xmlns="http://www.w3.org/2000/svg">
<path fill-rule="evenodd" clip-rule="evenodd" d="M10.0013 2.70703C7.93989 2.70703 5.97884 2.84005 4.20756 3.08009C2.32194 3.33561 1.04297 4.99232 1.04297 6.83093V13.1664C1.04297 15.005 2.32194 16.6618 4.20756 16.9173C5.97884 17.1574 7.93989 17.2904 10.0013 17.2904C12.0627 17.2904 14.0238 17.1574 15.7951 16.9173C17.6806 16.6618 18.9596 15.005 18.9596 13.1664V6.83094C18.9596 4.99232 17.6806 3.33561 15.7951 3.08009C14.0238 2.84005 12.0627 2.70703 10.0013 2.70703ZM8.65622 6.96276C8.46313 6.84691 8.22264 6.84388 8.0267 6.95482C7.83075 7.06576 7.70964 7.27353 7.70964 7.4987V12.4987C7.70964 12.7239 7.83075 12.9316 8.0267 13.0425C8.22264 13.1535 8.46313 13.1504 8.65622 13.0346L12.8229 10.5346C13.0111 10.4217 13.1263 10.2182 13.1263 9.9987C13.1263 9.7792 13.0111 9.5757 12.8229 9.46278L8.65622 6.96276Z" fill="#08879F"/>
</svg>
