<svg width="13" height="11" viewBox="0 0 13 11" fill="none" xmlns="http://www.w3.org/2000/svg">
<path d="M1.44 10.76L0.52 9.24C1.53333 8.57333 2.28 7.86667 2.76 7.12C3.26667 6.34667 3.52 5.38667 3.52 4.24C3.44 4.26666 3.33333 4.28 3.2 4.28C2.64 4.28 2.14667 4.10667 1.72 3.76C1.29333 3.41333 1.08 2.92 1.08 2.28C1.08 1.58667 1.28 1.04 1.68 0.639999C2.08 0.239998 2.58667 0.0399976 3.2 0.0399976C3.97333 0.0399976 4.58667 0.359998 5.04 1C5.49333 1.61333 5.72 2.50667 5.72 3.68C5.72 5.28 5.34667 6.66667 4.6 7.84C3.88 8.98667 2.82667 9.96 1.44 10.76ZM8.52 10.76L7.6 9.24C8.61333 8.57333 9.36 7.86667 9.84 7.12C10.3467 6.34667 10.6 5.38667 10.6 4.24C10.52 4.26666 10.4133 4.28 10.28 4.28C9.72 4.28 9.22667 4.10667 8.8 3.76C8.37333 3.41333 8.16 2.92 8.16 2.28C8.16 1.58667 8.36 1.04 8.76 0.639999C9.16 0.239998 9.66667 0.0399976 10.28 0.0399976C11.0533 0.0399976 11.6667 0.359998 12.12 1C12.5733 1.61333 12.8 2.50667 12.8 3.68C12.8 5.28 12.4267 6.66667 11.68 7.84C10.96 8.98667 9.90667 9.96 8.52 10.76Z" fill="black"/>
</svg>
