<svg width="13" height="11" viewBox="0 0 13 11" fill="none" xmlns="http://www.w3.org/2000/svg">
<path d="M2.8 10.88C2 10.88 1.37333 10.5733 0.92 9.96C0.493334 9.32 0.28 8.42667 0.28 7.28C0.28 5.68 0.64 4.29333 1.36 3.12C2.08 1.94667 3.13333 0.959999 4.52 0.159998L5.48 1.72C4.46667 2.38667 3.70667 3.10667 3.2 3.88C2.69333 4.62666 2.44 5.56 2.44 6.68C2.52 6.65333 2.64 6.64 2.8 6.64C3.33333 6.64 3.81333 6.81333 4.24 7.16C4.69333 7.50667 4.92 8.01333 4.92 8.68C4.92 9.34667 4.72 9.88 4.32 10.28C3.92 10.68 3.41333 10.88 2.8 10.88ZM9.88 10.88C9.08 10.88 8.45333 10.5733 8 9.96C7.57333 9.32 7.36 8.42667 7.36 7.28C7.36 5.68 7.72 4.29333 8.44 3.12C9.16 1.94667 10.2133 0.959999 11.6 0.159998L12.56 1.72C11.5467 2.38667 10.7867 3.10667 10.28 3.88C9.77333 4.62666 9.52 5.56 9.52 6.68C9.6 6.65333 9.72 6.64 9.88 6.64C10.4133 6.64 10.8933 6.81333 11.32 7.16C11.7733 7.50667 12 8.01333 12 8.68C12 9.34667 11.8 9.88 11.4 10.28C11 10.68 10.4933 10.88 9.88 10.88Z" fill="black"/>
</svg>
